<svg width="104" height="104" viewBox="0 0 104 104" fill="none" xmlns="http://www.w3.org/2000/svg">
<g clip-path="url(#clip0_860_825)">
<path d="M52 0C23.3146 0 0 23.3146 0 52C0 80.6854 23.3146 104 52 104C80.6854 104 104 80.6854 104 52C104 23.3146 80.6854 0 52 0ZM52 98.7512C26.2441 98.7512 5.24883 77.7559 5.24883 52C5.24883 26.2441 26.2441 5.24883 52 5.24883C77.7559 5.24883 98.7512 26.2441 98.7512 52C98.7512 77.7559 77.7559 98.7512 52 98.7512Z" fill="#F55123"/>
<path d="M55.6622 51.7561L70.9204 36.4979C71.8969 35.5214 71.8969 33.8124 70.9204 32.8359C69.9439 31.8594 68.235 31.8594 67.2584 32.8359L52.0002 48.0941L36.742 32.8359C35.7655 31.8594 34.0566 31.8594 33.0801 32.8359C32.1035 33.8124 32.1035 35.5214 33.0801 36.4979L48.3383 51.7561L33.0801 66.8922C32.1035 67.8688 32.1035 69.5777 33.0801 70.5542C33.5683 71.0425 34.3007 71.2866 34.911 71.2866C35.5214 71.2866 36.2538 71.0425 36.742 70.5542L52.0002 55.296L67.2584 70.5542C67.7467 71.0425 68.4791 71.2866 69.0894 71.2866C69.6998 71.2866 70.4322 71.0425 70.9204 70.5542C71.8969 69.5777 71.8969 67.8688 70.9204 66.8922L55.6622 51.7561Z" fill="#F55123"/>
</g>
<defs>
<clipPath id="clip0_860_825">
<rect width="104" height="104" fill="white"/>
</clipPath>
</defs>
</svg>
