<svg width="256" height="50" viewBox="0 0 256 50" fill="none" xmlns="http://www.w3.org/2000/svg">
<path d="M66.5 0.34375H77.846V3.95609H73.9783V17.3438H70.342V3.95609H66.5V0.34375Z" fill="#070707"/>
<path d="M80.2488 0.34375H83.8852V6.89516H89.8601V0.34375H93.4836V17.3438H89.8601V10.5852H83.8852V17.3438H80.2488V0.34375Z" fill="#070707"/>
<path d="M97.0043 0.34375H106.5V3.71009H100.641V7.14116H106.5V10.4557H100.641V13.9774H106.5V17.3438H97.0043V0.34375Z" fill="#070707"/>
<path d="M117.5 0.34375H121.095V6.89516H127.002V0.34375H130.584V17.3438H127.002V10.5852H121.095V17.3438H117.5V0.34375Z" fill="#265EF7"/>
<path d="M139.82 0.34375H142.602L149.411 17.3438H145.803L144.444 14.0033H138.054L136.745 17.3438H133.15L139.82 0.34375ZM141.217 5.91115L139.273 10.9218H143.224L141.217 5.91115Z" fill="#265EF7"/>
<path d="M152.027 0.34375H157.731C159.264 0.34375 160.501 0.801226 161.441 1.71618C162.381 2.6225 162.851 3.81798 162.851 5.30262C162.851 6.278 162.618 7.2059 162.152 8.08632C161.695 8.95812 161 9.60981 160.069 10.0414C159.137 10.473 158.341 10.6974 157.68 10.7147L155.597 10.7664V17.3438H152.027V0.34375ZM155.546 3.39935V7.74969H156.944C157.545 7.74969 158.057 7.52958 158.481 7.08937C158.913 6.64916 159.129 6.12694 159.129 5.52273C159.129 4.8322 158.887 4.29704 158.404 3.91725C157.922 3.53745 157.236 3.34756 156.347 3.34756L155.546 3.39935Z" fill="#265EF7"/>
<path d="M165.849 0.34375H171.552C173.085 0.34375 174.322 0.801226 175.262 1.71618C176.202 2.6225 176.672 3.81798 176.672 5.30262C176.672 6.278 176.439 7.2059 175.973 8.08632C175.516 8.95812 174.821 9.60981 173.89 10.0414C172.958 10.473 172.162 10.6974 171.502 10.7147L169.418 10.7664V17.3438H165.849V0.34375ZM169.367 3.39935V7.74969H170.765C171.366 7.74969 171.878 7.52958 172.302 7.08937C172.734 6.64916 172.95 6.12694 172.95 5.52273C172.95 4.8322 172.708 4.29704 172.226 3.91725C171.743 3.53745 171.057 3.34756 170.168 3.34756L169.367 3.39935Z" fill="#265EF7"/>
<path d="M178.323 0.34375H182.299L185.373 5.62631L188.498 0.34375H192.5L187.19 9.39402V17.3438H183.633V9.39402L178.323 0.34375Z" fill="#265EF7"/>
<path d="M40.1944 9.33332C40.1944 7.48422 40.1944 5.78046 40.1944 4.07669C40.1944 3.75228 40.1854 3.42658 40.2061 3.10348C40.2606 2.23797 40.8433 1.66442 41.7166 1.64626C42.6677 1.62679 43.6189 1.63068 44.57 1.64496C45.5705 1.65923 46.1739 2.27041 46.1752 3.27995C46.1816 6.69657 46.1855 10.1132 46.17 13.5285C46.1687 13.9554 46.2854 14.2396 46.6306 14.5095C49.2985 16.6065 51.9171 18.767 54.62 20.8172C56.2693 22.0681 56.2356 23.6811 55.4583 24.6932C54.3384 26.1543 52.3803 26.4411 50.9711 25.3303C47.2042 22.3588 43.4476 19.373 39.6897 16.3911C35.9993 13.4623 32.3036 10.5388 28.6301 7.58803C28.2252 7.26233 28.0124 7.41156 27.7049 7.6581C21.9837 12.2361 16.2586 16.8076 10.5336 21.3804C8.89468 22.6884 7.26098 24.0029 5.61301 25.2979C4.29594 26.3334 2.56881 26.2568 1.41523 25.1383C0.133187 23.8965 0.201961 22.2096 1.5969 21.0897C3.85475 19.2756 6.12168 17.4733 8.38602 15.6657C14.1967 11.028 20.0088 6.39033 25.8195 1.75266C27.4843 0.423902 28.9376 0.436878 30.618 1.77472C33.6272 4.17271 36.6403 6.56292 39.6533 8.95572C39.7857 9.06083 39.9297 9.14906 40.1931 9.33203L40.1944 9.33332Z" fill="#070707"/>
<path d="M11.7668 39.4805C11.7668 39.4805 28.5611 55.6264 44.707 39.4805" stroke="#265EF7" stroke-width="5.5" stroke-miterlimit="22.93" stroke-linecap="round"/>
<path d="M66.5 28.521H70.1147V34.926H76.0541V28.521H79.656V45.1412H76.0541V38.5336H70.1147V45.1412H66.5V28.521Z" fill="#070707"/>
<path d="M82.581 36.8248C82.581 34.3691 83.3985 32.3438 85.0334 30.7488C86.6769 29.1454 88.6226 28.3438 90.8706 28.3438C93.3571 28.3438 95.4135 29.1497 97.0399 30.7615C98.6663 32.3648 99.4795 34.3944 99.4795 36.8501C99.4795 39.2889 98.6748 41.3142 97.0655 42.926C95.4561 44.5378 93.4294 45.3438 90.9856 45.3438C88.5417 45.3438 86.5278 44.5421 84.944 42.9387C83.3687 41.3353 82.581 39.2973 82.581 36.8248ZM91.0367 31.6602C89.6316 31.6349 88.4991 32.1159 87.6391 33.1032C86.779 34.0906 86.349 35.3648 86.349 36.926C86.349 38.4028 86.7876 39.6265 87.6646 40.5969C88.5417 41.5674 89.6487 42.0526 90.9856 42.0526C92.3906 42.0526 93.5231 41.5758 94.3832 40.6222C95.2517 39.6602 95.686 38.3944 95.686 36.8248C95.686 35.2805 95.2602 34.04 94.4087 33.1032C93.5657 32.1665 92.4417 31.6855 91.0367 31.6602Z" fill="#070707"/>
<path d="M103.695 28.521H107.986L111.128 38.483L114.27 28.521H118.422L120.568 45.1412H117.119L115.65 33.445L111.959 45.1412H110.311L106.53 33.3438L105.138 45.1412H101.638L103.695 28.521Z" fill="#070707"/>
<path d="M123.237 28.521H132.676V31.8121H126.852V35.1665H132.676V38.407H126.852V41.8501H132.676V45.1412H123.237V28.521Z" fill="#070707"/>
<path d="M142.55 28.521H146.152V45.1412H142.55V28.521Z" fill="#070707"/>
<path d="M160.61 28.521H164.148V45.1412H160.649L152.947 34.3817V45.1412H149.345V28.521H152.896L160.61 39.2045V28.521Z" fill="#070707"/>
<path d="M167.354 28.521H170.956V45.1412H167.354V28.521Z" fill="#070707"/>
<path d="M173.179 28.521H184.457V32.0526H180.613V45.1412H176.998V32.0526H173.179V28.521Z" fill="#070707"/>
<path d="M186.693 28.521H190.295V45.1412H186.693V28.521Z" fill="#070707"/>
<path d="M199.478 28.521H202.275L209.122 45.1412H205.494L204.128 41.8754H197.703L196.387 45.1412H192.772L199.478 28.521ZM200.883 33.964L198.929 38.8627H202.901L200.883 33.964Z" fill="#070707"/>
<path d="M208.943 28.521H220.221V32.0526H216.377V45.1412H212.762V32.0526H208.943V28.521Z" fill="#070707"/>
<path d="M222.457 28.521H226.059V45.1412H222.457V28.521Z" fill="#070707"/>
<path d="M228.051 28.521H231.704L235.945 39.5716L240.185 28.521H243.851L237.516 45.1412H234.374L228.051 28.521Z" fill="#070707"/>
<path d="M246.061 28.521H255.5V31.8121H249.676V35.1665H255.5V38.407H249.676V41.8501H255.5V45.1412H246.061V28.521Z" fill="#070707"/>
</svg>
