<svg width="104" height="104" viewBox="0 0 104 104" fill="none" xmlns="http://www.w3.org/2000/svg">
<g clip-path="url(#clip0_825_1247)">
<path d="M52 0C23.3146 0 0 23.3146 0 52C0 80.6854 23.3146 104 52 104C80.6854 104 104 80.6854 104 52C104 23.3146 80.6854 0 52 0ZM52 98.7512C26.2441 98.7512 5.24883 77.7559 5.24883 52C5.24883 26.2441 26.2441 5.24883 52 5.24883C77.7559 5.24883 98.7512 26.2441 98.7512 52C98.7512 77.7559 77.7559 98.7512 52 98.7512Z" fill="#2CA746"/>
<path d="M75.8568 33.9149C74.2174 32.4246 71.6677 32.5414 70.1695 34.1887L45.5993 61.2441L33.7291 49.1767C32.1622 47.5897 29.6166 47.5655 28.0337 49.1283C26.4466 50.6871 26.4225 53.2367 27.9853 54.8238L42.8441 69.9283C43.2187 70.3099 43.6656 70.6129 44.1587 70.8197C44.6518 71.0264 45.1812 71.1329 45.7159 71.1327C45.7401 71.1327 45.7683 71.1327 45.7925 71.1367C46.341 71.1258 46.8814 71.0029 47.3808 70.7758C47.8801 70.5486 48.3279 70.2219 48.6965 69.8156L76.1304 39.6064C77.625 37.9548 77.5041 35.4093 75.8568 33.9149Z" fill="#2CA746"/>
</g>
<defs>
<clipPath id="clip0_825_1247">
<rect width="104" height="104" fill="white"/>
</clipPath>
</defs>
</svg>
