<svg width="104" height="104" viewBox="0 0 104 104" fill="none" xmlns="http://www.w3.org/2000/svg">
<g clip-path="url(#clip0_860_1034)">
<path d="M52 0C23.3146 0 0 23.3146 0 52C0 80.6854 23.3146 104 52 104C80.6854 104 104 80.6854 104 52C104 23.3146 80.6854 0 52 0ZM52 98.7512C26.2441 98.7512 5.24883 77.7559 5.24883 52C5.24883 26.2441 26.2441 5.24883 52 5.24883C77.7559 5.24883 98.7512 26.2441 98.7512 52C98.7512 77.7559 77.7559 98.7512 52 98.7512Z" fill="#D8B965"/>
<path d="M52 27.1782C49.7563 27.1782 47.9375 28.997 47.9375 31.2407V57.4018C47.9375 59.6455 49.7563 61.4643 52 61.4643C54.2437 61.4643 56.0625 59.6455 56.0625 57.4018V31.2407C56.0625 28.997 54.2437 27.1782 52 27.1782Z" fill="#D8B965"/>
<path d="M52 77.4077C55.0289 77.4077 57.4844 74.9523 57.4844 71.9233C57.4844 68.8944 55.0289 66.439 52 66.439C48.9711 66.439 46.5156 68.8944 46.5156 71.9233C46.5156 74.9523 48.9711 77.4077 52 77.4077Z" fill="#D8B965"/>
</g>
<defs>
<clipPath id="clip0_860_1034">
<rect width="104" height="104" fill="white"/>
</clipPath>
</defs>
</svg>
